<svg width="500" height="500" viewBox="0 0 500 500" fill="none" xmlns="http://www.w3.org/2000/svg">
<g clip-path="url(#clip0_710_2)">
<rect width="500" height="500" rx="100" fill="#37474F"/>
<path d="M375.319 -313.092L-82.9306 1032.33H-407.372L50.8784 -313.092H375.319Z" fill="black" fill-opacity="0.6"/>
<path d="M143.558 176.54C146.358 176.54 149.158 176.68 151.958 176.96C154.758 177.24 158.258 177.94 162.458 179.06L156.998 252.14C154.198 251.3 151.118 250.74 147.758 250.46C144.398 249.9 140.478 249.62 135.998 249.62C129.278 249.62 123.538 250.6 118.778 252.56C114.018 254.52 109.958 257.6 106.598 261.8C103.518 265.72 101.278 270.62 99.8783 276.5C98.4783 282.1 97.7783 288.68 97.7783 296.24V413H29.7383V180.74H81.8183L91.4783 217.7H94.8383C97.6383 211.26 101.278 204.96 105.758 198.8C110.518 192.36 116.118 187.04 122.558 182.84C128.998 178.64 135.998 176.54 143.558 176.54ZM251.616 176.96C270.096 176.96 285.916 181.16 299.076 189.56C312.236 197.68 322.176 209.58 328.896 225.26C335.896 240.94 339.396 260.12 339.396 282.8V318.5H228.516C228.516 333.9 231.736 345.24 238.176 352.52C244.616 359.52 254.556 363.02 267.996 363.02C278.636 363.02 288.576 361.62 297.816 358.82C307.056 356.02 316.996 351.4 327.636 344.96V400.4C317.556 406.28 306.776 410.48 295.296 413C283.816 415.8 271.356 417.2 257.916 417.2C235.516 417.2 217.176 412.72 202.896 403.76C188.896 394.52 178.536 381.08 171.816 363.44C165.096 345.52 161.736 323.68 161.736 297.92C161.736 271.88 165.096 249.9 171.816 231.98C178.536 214.06 188.616 200.48 202.056 191.24C215.496 181.72 232.016 176.96 251.616 176.96ZM253.296 229.46C246.296 229.46 240.416 232.54 235.656 238.7C230.896 244.86 228.516 255.5 228.516 270.62H276.396C276.396 260.82 275.416 252.98 273.456 247.1C271.496 240.94 268.836 236.46 265.476 233.66C262.116 230.86 258.056 229.46 253.296 229.46ZM472.714 236.6H434.914V413H366.874V236.6H341.254V200.48L366.874 181.58V177.8C366.874 157.08 369.114 140.42 373.594 127.82C378.354 115.22 385.494 106.12 395.014 100.52C404.814 94.64 417.134 91.7 431.974 91.7C441.214 91.7 449.474 92.54 456.754 94.22C464.314 95.9 473.274 98.7 483.634 102.62L470.194 152.6C466.554 151.2 462.914 150.22 459.274 149.66C455.634 148.82 451.994 148.4 448.354 148.4C443.874 148.4 440.514 150.36 438.274 154.28C436.034 157.92 434.914 163.94 434.914 172.34V180.74H472.714V236.6Z" fill="white"/>
</g>
<defs>
<clipPath id="clip0_710_2">
<rect width="500" height="500" rx="100" fill="white"/>
</clipPath>
</defs>
</svg>
