<svg fill="none" height="500" viewBox="0 0 500 500" width="500" xmlns="http://www.w3.org/2000/svg" xmlns:xlink="http://www.w3.org/1999/xlink"><clipPath id="a"><rect height="500" rx="100" width="500"/></clipPath><g clip-path="url(#a)"><rect fill="#6200ea" height="500" rx="100" width="500"/><path d="m375.319-313.092-458.2496 1345.422h-324.4414l458.2504-1345.422z" fill="#000" fill-opacity=".6"/><path d="m356.514 313.29c0 24.111-4.7 44.545-14.099 61.3-8.991 16.347-22.068 28.607-39.232 36.78s-38.006 12.26-62.526 12.26c-16.347 0-32.694-1.43-49.04-4.291-15.938-2.861-31.672-7.765-47.201-14.712v-93.789c12.26 7.356 25.746 13.895 40.458 19.616 15.12 5.313 30.241 7.969 45.362 7.969 9.399 0 16.346-1.43 20.842-4.291 4.495-3.269 6.743-8.378 6.743-15.325 0-3.678-1.022-7.356-3.065-11.034-1.635-3.678-6.13-7.969-13.486-12.873-6.948-4.904-18.39-11.238-34.328-19.003-13.895-6.947-25.542-15.325-34.941-25.133-9.4-10.217-16.551-21.864-21.455-34.941-4.496-13.077-6.743-27.585-6.743-43.523 0-31.467 9.603-55.987 28.811-73.56 19.207-17.5727 46.383-26.359 81.529-26.359 17.572 0 34.123 2.452 49.653 7.356 15.529 4.904 31.467 12.0556 47.814 21.455l-24.52 75.399c-6.539-4.495-13.486-8.582-20.842-12.26-7.356-4.087-14.917-7.152-22.681-9.195-7.765-2.452-15.53-3.678-23.294-3.678-6.948 0-12.26 1.226-15.938 3.678-3.27 2.452-4.904 6.539-4.904 12.26 0 3.678.817 6.947 2.452 9.808 2.043 2.861 6.538 6.539 13.486 11.034 6.947 4.495 17.572 11.034 31.876 19.616 13.894 7.765 25.95 16.551 36.167 26.359 10.216 9.399 18.185 20.638 23.907 33.715 6.13 12.669 9.195 27.789 9.195 45.362z" fill="#fff"/></g></svg>