<svg fill="none" height="500" viewBox="0 0 500 500" width="500" xmlns="http://www.w3.org/2000/svg" xmlns:xlink="http://www.w3.org/1999/xlink"><clipPath id="a"><rect height="500" rx="100" width="500"/></clipPath><g clip-path="url(#a)"><rect fill="#2e7d32" height="500" rx="100" width="500"/><path d="m375.319-313.092-458.2496 1345.422h-324.4414l458.2504-1345.422z" fill="#000" fill-opacity=".6"/><path d="m178.102 106.317c0 9.588-.423 19.317-1.269 29.187-.846 9.588-2.256 19.035-4.23 28.341h3.807c3.102-7.332 7.05-13.395 11.844-18.189 4.794-5.076 10.434-8.742 16.92-10.998 6.486-2.538 13.818-3.807 21.996-3.807 13.536 0 25.098 3.384 34.686 10.152s16.92 16.497 21.996 29.187 7.614 28.2 7.614 46.53v152.28h-68.526v-130.284c0-15.792-1.551-27.495-4.653-35.109-2.82-7.896-7.332-11.844-13.536-11.844-7.614 0-13.395 2.538-17.343 7.614-3.666 4.794-6.204 12.408-7.614 22.842-1.128 10.434-1.692 23.688-1.692 39.762v107.019h-68.526v-321.48h68.526zm140.984 364.203c-5.64 0-11.562-.423-17.766-1.269-6.204-.564-12.126-1.833-17.766-3.807v-57.951c3.384 1.128 6.768 1.974 10.152 2.538 3.102.846 6.063 1.269 8.883 1.269 6.486 0 11.139-2.397 13.959-7.191 3.102-4.794 4.653-11.985 4.653-21.573v-247.455h68.526v252.954c0 18.894-2.82 34.404-8.46 46.53s-13.818 21.009-24.534 26.649c-10.434 5.922-22.983 9.024-37.647 9.306zm0-393.813c0-12.126 2.82-21.15 8.46-27.072 5.922-5.922 15.228-8.883 27.918-8.883s21.855 3.102 27.495 9.306c5.922 5.922 8.883 14.805 8.883 26.649s-3.102 20.727-9.306 26.649c-5.922 5.922-14.946 8.883-27.072 8.883s-21.291-2.961-27.495-8.883c-5.922-5.922-8.883-14.805-8.883-26.649z" fill="#fff"/></g></svg>