<svg width="500" height="500" viewBox="0 0 500 500" fill="none" xmlns="http://www.w3.org/2000/svg">
<g clip-path="url(#clip0_712_5)">
<rect width="500" height="500" rx="100" fill="#1A237E"/>
<path d="M375.319 -313.092L-82.9306 1032.33H-407.372L50.8784 -313.092H375.319Z" fill="black" fill-opacity="0.6"/>
<path d="M194.274 160.87C197.674 160.87 201.074 161.04 204.474 161.38C207.874 161.72 212.124 162.57 217.224 163.93L210.594 252.67C207.194 251.65 203.454 250.97 199.374 250.63C195.294 249.95 190.534 249.61 185.094 249.61C176.934 249.61 169.964 250.8 164.184 253.18C158.404 255.56 153.474 259.3 149.394 264.4C145.654 269.16 142.934 275.11 141.234 282.25C139.534 289.05 138.684 297.04 138.684 306.22V448H56.0643V165.97H119.304L131.034 210.85H135.114C138.514 203.03 142.934 195.38 148.374 187.9C154.154 180.08 160.954 173.62 168.774 168.52C176.594 163.42 185.094 160.87 194.274 160.87ZM314.124 131.29C314.124 142.85 313.614 154.58 312.594 166.48C311.574 178.04 309.874 189.43 307.494 200.65H312.084C315.824 191.81 320.584 184.5 326.364 178.72C332.144 172.6 338.944 168.18 346.764 165.46C354.584 162.4 363.424 160.87 373.284 160.87C389.604 160.87 403.544 164.95 415.104 173.11C426.664 181.27 435.504 193 441.624 208.3C447.744 223.6 450.804 242.3 450.804 264.4V448H368.184V290.92C368.184 271.88 366.314 257.77 362.574 248.59C359.174 239.07 353.734 234.31 346.254 234.31C337.074 234.31 330.104 237.37 325.344 243.49C320.924 249.27 317.864 258.45 316.164 271.03C314.804 283.61 314.124 299.59 314.124 318.97V448H231.504V60.4H314.124V131.29Z" fill="white"/>
</g>
<defs>
<clipPath id="clip0_712_5">
<rect width="500" height="500" rx="100" fill="white"/>
</clipPath>
</defs>
</svg>
