<svg fill="none" height="500" viewBox="0 0 500 500" width="500" xmlns="http://www.w3.org/2000/svg" xmlns:xlink="http://www.w3.org/1999/xlink"><clipPath id="a"><rect height="500" rx="100" width="500"/></clipPath><g clip-path="url(#a)"><rect fill="#1976d2" height="500" rx="100" width="500"/><path d="m375.319-313.092-458.2496 1345.422h-324.4414l458.2504-1345.422z" fill="#000" fill-opacity=".6"/><path d="m76.171 129.202c8.996 0 16.4927 1.961 22.49 5.882 6.228 3.921 11.995 11.072 17.3 21.452h3.114l4.498-23.874h48.44v174.384c0 21.452-3.114 39.559-9.342 54.322-5.997 14.993-15.455 26.296-28.372 33.908-12.917 7.843-29.756 11.764-50.516 11.764-11.3026 0-21.5673-1.269-30.794-3.806-8.996-2.307-17.5306-5.882-25.604-10.726v-48.094c6.92 3.46 13.3787 6.228 19.376 8.304 6.228 2.307 12.2254 3.921 17.992 4.844 5.9974 1.153 11.764 1.73 17.3 1.73 10.1494 0 18.338-2.422 24.566-7.266 6.228-4.613 9.342-12.687 9.342-24.22v-2.076c0-3.921.115-8.419.346-13.494.461-5.075.923-9.342 1.384-12.802h-1.73c-5.075 9.919-10.841 17.069-17.3 21.452-6.228 4.383-14.3013 6.574-24.22 6.574-17.0693 0-30.5633-8.765-40.482-26.296-9.9186-17.531-14.878-41.289-14.878-71.276 0-20.991 2.1914-38.983 6.574-53.976 4.6134-14.993 11.1874-26.527 19.722-34.6 8.5347-8.073 18.7994-12.11 30.794-12.11zm18.338 48.094c-3.9213 0-7.266 1.961-10.034 5.882-2.768 3.691-4.9593 9.457-6.574 17.3-1.384 7.843-2.076 17.877-2.076 30.102 0 16.147 1.6147 28.372 4.844 36.676 3.2294 8.073 7.958 12.11 14.186 12.11 3.6907 0 6.805-.807 9.342-2.422 2.768-1.845 4.959-4.498 6.574-7.958 1.845-3.691 3.114-8.304 3.806-13.84.923-5.536 1.384-12.11 1.384-19.722v-10.034c0-11.533-.807-20.76-2.422-27.68-1.384-7.151-3.691-12.341-6.92-15.57-2.999-3.229-7.0353-4.844-12.11-4.844zm159.303-47.748c15.224 0 28.257 3.46 39.098 10.38 10.842 6.689 19.03 16.493 24.566 29.41 5.767 12.917 8.65 28.718 8.65 47.402v29.41h-91.344c0 12.687 2.653 22.029 7.958 28.026 5.306 5.767 13.494 8.65 24.566 8.65 8.766 0 16.954-1.153 24.566-3.46s15.801-6.113 24.566-11.418v45.672c-8.304 4.844-17.184 8.304-26.642 10.38-9.457 2.307-19.722 3.46-30.794 3.46-18.453 0-33.562-3.691-45.326-11.072-11.533-7.612-20.068-18.684-25.604-33.216-5.536-14.763-8.304-32.755-8.304-53.976 0-21.452 2.768-39.559 8.304-54.322s13.84-25.95 24.912-33.562c11.072-7.843 24.682-11.764 40.828-11.764zm1.384 43.25c-5.766 0-10.61 2.537-14.532 7.612-3.921 5.075-5.882 13.84-5.882 26.296h39.444c0-8.073-.807-14.532-2.422-19.376-1.614-5.075-3.806-8.765-6.574-11.072s-6.112-3.46-10.034-3.46zm173.146-43.596c16.608 0 29.526 6.113 38.752 18.338 9.227 12.225 13.84 29.525 13.84 51.9v124.56h-56.052v-106.568c0-12.687-1.038-22.259-3.114-28.718s-6.574-9.688-13.494-9.688c-7.842 0-13.148 4.152-15.916 12.456s-4.152 23.297-4.152 44.98v87.538h-56.052v-191.338h43.942l6.228 23.528h3.114c2.999-5.997 6.459-10.957 10.38-14.878 4.152-4.152 8.881-7.151 14.186-8.996 5.536-2.076 11.649-3.114 18.338-3.114z" fill="#fff"/></g></svg>