<svg fill="none" height="500" viewBox="0 0 500 500" width="500" xmlns="http://www.w3.org/2000/svg" xmlns:xlink="http://www.w3.org/1999/xlink"><clipPath id="a"><rect height="500" rx="100" width="500"/></clipPath><g clip-path="url(#a)"><rect fill="#a0f" height="500" rx="100" width="500"/><path d="m376.319-313.092-458.2496 1345.422h-324.4414l458.2504-1345.422z" fill="#000" fill-opacity=".6"/><path d="m227.5 123.385v251.615h-73.71v-251.615zm-36.855-101.465c13.65 0 23.508 3.3367 29.575 10.01 6.37 6.37 9.555 15.925 9.555 28.665s-3.337 22.295-10.01 28.665c-6.37 6.37-16.077 9.555-29.12 9.555s-22.902-3.185-29.575-9.555c-6.37-6.37-9.555-15.925-9.555-28.665 0-13.0433 3.033-22.75 9.1-29.12 6.37-6.37 16.38-9.555 30.03-9.555zm81.285 462.28c-6.067 0-12.437-.455-19.11-1.365-6.673-.607-13.043-1.972-19.11-4.095v-62.335c3.64 1.213 7.28 2.123 10.92 2.73 3.337.91 6.522 1.365 9.555 1.365 6.977 0 11.982-2.578 15.015-7.735 3.337-5.157 5.005-12.892 5.005-23.205v-266.175h73.71v272.09c0 20.323-3.033 37.007-9.1 50.05s-14.863 22.598-26.39 28.665c-11.223 6.37-24.722 9.707-40.495 10.01zm0-423.605c0-13.0433 3.033-22.75 9.1-29.12 6.37-6.37 16.38-9.555 30.03-9.555s23.508 3.3367 29.575 10.01c6.37 6.37 9.555 15.925 9.555 28.665s-3.337 22.295-10.01 28.665c-6.37 6.37-16.077 9.555-29.12 9.555s-22.902-3.185-29.575-9.555c-6.37-6.37-9.555-15.925-9.555-28.665z" fill="#fff"/></g></svg>