<svg fill="none" height="500" viewBox="0 0 500 500" width="500" xmlns="http://www.w3.org/2000/svg" xmlns:xlink="http://www.w3.org/1999/xlink"><clipPath id="a"><rect height="500" rx="100" width="500"/></clipPath><g clip-path="url(#a)"><rect fill="#6d4c41" height="500" rx="100" width="500"/><path d="m375.319-313.092-458.2496 1345.422h-324.4414l458.2504-1345.422z" fill="#000" fill-opacity=".6"/><path d="m199.806 283.298c0-11.726 1.244-21.853 3.731-30.381 2.488-8.883 6.396-17.056 11.726-24.518s12.259-15.102 20.787-22.919c7.107-6.396 12.792-11.904 17.056-16.523 4.264-4.975 7.285-9.949 9.061-14.924 2.132-4.975 3.198-10.838 3.198-17.589 0-8.173-2.487-14.391-7.462-18.655-4.974-4.619-12.614-6.929-22.919-6.929-9.238 0-19.188 2.31-29.848 6.929s-22.208 11.548-34.645 20.787l-27.716-67.691c16.701-12.4367 33.402-21.6754 50.102-27.716 17.056-6.0407 33.935-9.061 50.635-9.061 34.823 0 61.118 8.528 78.884 25.584 18.122 17.056 27.183 40.153 27.183 69.29 0 15.279-1.954 28.604-5.863 39.975-3.908 11.015-9.594 21.142-17.056 30.381-7.106 9.239-15.99 18.477-26.65 27.716-8.883 7.817-15.279 14.213-19.188 19.188-3.908 4.619-6.396 8.883-7.462 12.792-.71 3.553-1.066 7.995-1.066 13.325v13.325h-72.488zm-12.792 113.529c0-15.99 4.264-28.249 12.792-36.777 8.528-8.883 20.787-13.325 36.777-13.325 15.635 0 27.539 4.442 35.711 13.325 8.173 8.528 12.259 20.787 12.259 36.777 0 15.635-4.264 27.894-12.792 36.777-8.172 8.528-19.898 12.792-35.178 12.792-15.279 0-27.36-4.264-36.244-12.792-8.883-8.883-13.325-21.142-13.325-36.777z" fill="#fff"/></g></svg>