<svg width="500" height="500" viewBox="0 0 500 500" fill="none" xmlns="http://www.w3.org/2000/svg">
<g clip-path="url(#clip0_507_197)">
<rect width="500" height="500" rx="100" fill="#2E7D32"/>
<path d="M375.319 -313.092L-82.9306 1032.33H-407.372L50.8784 -313.092H375.319Z" fill="black" fill-opacity="0.6"/>
<path d="M163.812 444H81.192V56.4H163.812V444ZM282.487 127.29C282.487 138.85 281.977 150.58 280.957 162.48C279.937 174.04 278.237 185.43 275.857 196.65H280.447C284.187 187.81 288.947 180.5 294.727 174.72C300.507 168.6 307.307 164.18 315.127 161.46C322.947 158.4 331.787 156.87 341.647 156.87C357.967 156.87 371.907 160.95 383.467 169.11C395.027 177.27 403.867 189 409.987 204.3C416.107 219.6 419.167 238.3 419.167 260.4V444H336.547V286.92C336.547 267.88 334.677 253.77 330.937 244.59C327.537 235.07 322.097 230.31 314.617 230.31C305.437 230.31 298.467 233.37 293.707 239.49C289.287 245.27 286.227 254.45 284.527 267.03C283.167 279.61 282.487 295.59 282.487 314.97V444H199.867V56.4H282.487V127.29Z" fill="white"/>
</g>
<defs>
<clipPath id="clip0_507_197">
<rect width="500" height="500" rx="100" fill="white"/>
</clipPath>
</defs>
</svg>
