<svg fill="none" height="500" viewBox="0 0 500 500" width="500" xmlns="http://www.w3.org/2000/svg" xmlns:xlink="http://www.w3.org/1999/xlink"><clipPath id="a"><rect height="500" rx="100" width="500"/></clipPath><g clip-path="url(#a)"><rect fill="#00838f" height="500" rx="100" width="500"/><path d="m375.319-313.092-458.2496 1345.422h-324.4414l458.2504-1345.422z" fill="#000" fill-opacity=".6"/><path d="m156.097 418h-70.146v-329.08h70.146zm101.19-239.449v239.449h-70.146v-239.449zm-35.073-96.559c12.99 0 22.372 3.1753 28.145 9.526 6.062 6.062 9.093 15.155 9.093 27.279s-3.175 21.217-9.526 27.279c-6.062 6.062-15.299 9.093-27.712 9.093s-21.794-3.031-28.145-9.093c-6.062-6.062-9.093-15.155-9.093-27.279 0-12.413 2.887-21.65 8.66-27.712 6.062-6.062 15.588-9.093 28.578-9.093zm159.192 279.718c4.33 0 9.093-.722 14.289-2.165s10.681-3.464 16.454-6.062v55.424c-7.794 4.33-16.021 7.65-24.681 9.959-8.371 2.309-17.464 3.464-27.279 3.464-15.588 0-28.289-3.031-38.104-9.093s-17.031-15.155-21.65-27.279c-4.33-12.413-6.495-28.001-6.495-46.764v-103.054h-24.248v-37.238l30.31-18.186 16.454-50.228h47.63v48.063h45.032v57.589h-45.032v102.188c0 7.794 1.443 13.712 4.33 17.753 2.887 3.753 7.217 5.629 12.99 5.629z" fill="#fff"/></g></svg>