<svg fill="none" height="500" viewBox="0 0 500 500" width="500" xmlns="http://www.w3.org/2000/svg" xmlns:xlink="http://www.w3.org/1999/xlink"><clipPath id="a"><rect height="500" rx="100" width="500"/></clipPath><g clip-path="url(#a)"><rect fill="#c2185b" height="500" rx="100" width="500"/><path d="m375.319-313.092-458.2496 1345.422h-324.4414l458.2504-1345.422z" fill="#000" fill-opacity=".6"/><path d="m213.485 476.02c-5.64 0-11.562-.423-17.766-1.269-6.204-.564-12.126-1.833-17.766-3.807v-57.951c3.384 1.128 6.768 1.974 10.152 2.538 3.102.846 6.063 1.269 8.883 1.269 6.486 0 11.139-2.397 13.959-7.191 3.102-4.794 4.653-11.985 4.653-21.573v-247.455h68.526v252.954c0 18.894-2.82 34.404-8.46 46.53s-13.818 21.009-24.534 26.649c-10.434 5.922-22.983 9.024-37.647 9.306zm0-393.813c0-12.126 2.82-21.15 8.46-27.072 5.922-5.922 15.228-8.883 27.918-8.883s21.855 3.102 27.495 9.306c5.922 5.922 8.883 14.805 8.883 26.649s-3.102 20.727-9.306 26.649c-5.922 5.922-14.946 8.883-27.072 8.883s-21.291-2.961-27.495-8.883c-5.922-5.922-8.883-14.805-8.883-26.649z" fill="#fff"/></g></svg>