<svg fill="none" height="500" viewBox="0 0 500 500" width="500" xmlns="http://www.w3.org/2000/svg" xmlns:xlink="http://www.w3.org/1999/xlink"><clipPath id="a"><rect height="500" rx="100" width="500"/></clipPath><g clip-path="url(#a)"><rect fill="#bf360c" height="500" rx="100" width="500"/><path d="m375.319-313.092-458.2496 1345.422h-324.4414l458.2504-1345.422z" fill="#000" fill-opacity=".6" opacity=".4"/><path d="m164.951 316.69c0 17.425-3.396 32.191-10.189 44.3-6.497 11.813-15.948 20.673-28.352 26.58s-27.4661 8.86-45.1861 8.86c-11.8133 0-23.6266-1.034-35.44-3.101-11.518-2.067-22.8883-5.611-34.111-10.632v-67.779c8.86 5.316 18.606 10.041 29.238 14.176 10.9274 3.839 21.8547 5.759 32.782 5.759 6.7927 0 11.8134-1.034 15.062-3.101 3.2487-2.363 4.873-6.054 4.873-11.075 0-2.658-.7383-5.316-2.215-7.974-1.1813-2.658-4.43-5.759-9.746-9.303-5.0206-3.544-13.29-8.122-24.808-13.733-10.0413-5.021-18.4583-11.075-25.251-18.163-6.7926-7.383-11.961-15.8-15.505-25.251-3.2486-9.451-4.873-19.935-4.873-31.453 0-22.741 6.9404-40.461 20.821-53.16 13.8807-12.699 33.5204-19.049 58.919-19.049 12.6991 0 24.6601 1.772 35.8831 5.316s22.741 8.712 34.554 15.505l-17.72 54.489c-4.725-3.249-9.746-6.202-15.062-8.86-5.316-2.953-10.78-5.168-16.391-6.645-5.611-1.772-11.223-2.658-16.8341-2.658-5.0206 0-8.86.886-11.518 2.658-2.3626 1.772-3.544 4.725-3.544 8.86 0 2.658.5907 5.021 1.772 7.088 1.4767 2.067 4.7254 4.725 9.746 7.974 5.0207 3.249 12.6991 7.974 23.0361 14.176 10.041 5.611 18.754 11.961 26.137 19.049 7.383 6.793 13.142 14.914 17.277 24.365 4.43 9.155 6.645 20.083 6.645 32.782zm144.633-174.099c2.953 0 5.906.148 8.86.443 2.953.295 6.645 1.034 11.075 2.215l-5.759 77.082c-2.954-.886-6.202-1.477-9.746-1.772-3.544-.591-7.679-.886-12.404-.886-7.088 0-13.143 1.034-18.163 3.101-5.021 2.067-9.303 5.316-12.847 9.746-3.249 4.135-5.612 9.303-7.088 15.505-1.477 5.907-2.215 12.847-2.215 20.821v123.154h-71.766v-244.979h54.932l10.189 38.984h3.544c2.953-6.793 6.792-13.438 11.518-19.935 5.02-6.793 10.927-12.404 17.72-16.834 6.792-4.43 14.176-6.645 22.15-6.645zm179.415 174.099c0 17.425-3.397 32.191-10.189 44.3-6.498 11.813-15.948 20.673-28.352 26.58s-27.466 8.86-45.186 8.86c-11.814 0-23.627-1.034-35.44-3.101-11.518-2.067-22.889-5.611-34.111-10.632v-67.779c8.86 5.316 18.606 10.041 29.238 14.176 10.927 3.839 21.854 5.759 32.782 5.759 6.792 0 11.813-1.034 15.062-3.101 3.248-2.363 4.873-6.054 4.873-11.075 0-2.658-.739-5.316-2.215-7.974-1.182-2.658-4.43-5.759-9.746-9.303-5.021-3.544-13.29-8.122-24.808-13.733-10.042-5.021-18.459-11.075-25.251-18.163-6.793-7.383-11.961-15.8-15.505-25.251-3.249-9.451-4.873-19.935-4.873-31.453 0-22.741 6.94-40.461 20.821-53.16 13.88-12.699 33.52-19.049 58.919-19.049 12.699 0 24.66 1.772 35.883 5.316 11.222 3.544 22.74 8.712 34.554 15.505l-17.72 54.489c-4.726-3.249-9.746-6.202-15.062-8.86-5.316-2.953-10.78-5.168-16.391-6.645-5.612-1.772-11.223-2.658-16.834-2.658-5.021 0-8.86.886-11.518 2.658-2.363 1.772-3.544 4.725-3.544 8.86 0 2.658.59 5.021 1.772 7.088 1.476 2.067 4.725 4.725 9.746 7.974 5.02 3.249 12.699 7.974 23.036 14.176 10.041 5.611 18.753 11.961 26.137 19.049 7.383 6.793 13.142 14.914 17.277 24.365 4.43 9.155 6.645 20.083 6.645 32.782z" fill="#fff"/></g></svg>